<mxfile host="app.diagrams.net" modified="2020-09-25T04:04:31.313Z" agent="5.0 (Windows NT 10.0; Win64; x64) AppleWebKit/537.36 (KHTML, like Gecko) Chrome/85.0.4183.121 Safari/537.36" etag="I9LPXXfTNN_6PwApxZDB" version="13.7.5" type="github" pages="2">
  <diagram id="kgpKYQtTHZ0yAKxKKP6v" name="Page-1">
    <mxGraphModel dx="1108" dy="482" grid="1" gridSize="10" guides="1" tooltips="1" connect="1" arrows="1" fold="1" page="1" pageScale="1" pageWidth="850" pageHeight="1100" math="0" shadow="0">
      <root>
        <mxCell id="0" />
        <mxCell id="1" parent="0" />
        <mxCell id="72UNQaQtU82CDFyThiPd-6" style="edgeStyle=orthogonalEdgeStyle;rounded=0;orthogonalLoop=1;jettySize=auto;html=1;exitX=0.5;exitY=1;exitDx=0;exitDy=0;" edge="1" parent="1" source="72UNQaQtU82CDFyThiPd-2" target="72UNQaQtU82CDFyThiPd-3">
          <mxGeometry relative="1" as="geometry" />
        </mxCell>
        <mxCell id="72UNQaQtU82CDFyThiPd-2" value="&amp;nbsp;cd desktop" style="rounded=0;whiteSpace=wrap;html=1;" vertex="1" parent="1">
          <mxGeometry x="360" y="220" width="70" height="30" as="geometry" />
        </mxCell>
        <mxCell id="72UNQaQtU82CDFyThiPd-8" style="edgeStyle=orthogonalEdgeStyle;rounded=0;orthogonalLoop=1;jettySize=auto;html=1;exitX=0.5;exitY=1;exitDx=0;exitDy=0;" edge="1" parent="1" source="72UNQaQtU82CDFyThiPd-3" target="72UNQaQtU82CDFyThiPd-4">
          <mxGeometry relative="1" as="geometry" />
        </mxCell>
        <mxCell id="72UNQaQtU82CDFyThiPd-3" value="mkdir project" style="rounded=0;whiteSpace=wrap;html=1;" vertex="1" parent="1">
          <mxGeometry x="360" y="280" width="70" height="30" as="geometry" />
        </mxCell>
        <mxCell id="72UNQaQtU82CDFyThiPd-9" style="edgeStyle=orthogonalEdgeStyle;rounded=0;orthogonalLoop=1;jettySize=auto;html=1;exitX=0.5;exitY=1;exitDx=0;exitDy=0;entryX=0.5;entryY=0;entryDx=0;entryDy=0;" edge="1" parent="1" source="72UNQaQtU82CDFyThiPd-4" target="72UNQaQtU82CDFyThiPd-7">
          <mxGeometry relative="1" as="geometry" />
        </mxCell>
        <mxCell id="72UNQaQtU82CDFyThiPd-4" value="touch app" style="rounded=0;whiteSpace=wrap;html=1;" vertex="1" parent="1">
          <mxGeometry x="360" y="340" width="70" height="30" as="geometry" />
        </mxCell>
        <mxCell id="72UNQaQtU82CDFyThiPd-13" style="edgeStyle=orthogonalEdgeStyle;rounded=0;orthogonalLoop=1;jettySize=auto;html=1;exitX=0.5;exitY=1;exitDx=0;exitDy=0;entryX=0.5;entryY=0;entryDx=0;entryDy=0;" edge="1" parent="1" source="72UNQaQtU82CDFyThiPd-7" target="72UNQaQtU82CDFyThiPd-10">
          <mxGeometry relative="1" as="geometry" />
        </mxCell>
        <mxCell id="72UNQaQtU82CDFyThiPd-7" value="start app" style="rounded=0;whiteSpace=wrap;html=1;" vertex="1" parent="1">
          <mxGeometry x="360" y="400" width="70" height="30" as="geometry" />
        </mxCell>
        <mxCell id="72UNQaQtU82CDFyThiPd-14" style="edgeStyle=orthogonalEdgeStyle;rounded=0;orthogonalLoop=1;jettySize=auto;html=1;exitX=0.5;exitY=1;exitDx=0;exitDy=0;entryX=0.5;entryY=0;entryDx=0;entryDy=0;" edge="1" parent="1" source="72UNQaQtU82CDFyThiPd-10" target="72UNQaQtU82CDFyThiPd-11">
          <mxGeometry relative="1" as="geometry" />
        </mxCell>
        <mxCell id="72UNQaQtU82CDFyThiPd-10" value="git init" style="rounded=0;whiteSpace=wrap;html=1;" vertex="1" parent="1">
          <mxGeometry x="360" y="450" width="70" height="30" as="geometry" />
        </mxCell>
        <mxCell id="72UNQaQtU82CDFyThiPd-15" style="edgeStyle=orthogonalEdgeStyle;rounded=0;orthogonalLoop=1;jettySize=auto;html=1;exitX=0.5;exitY=1;exitDx=0;exitDy=0;entryX=0.5;entryY=0;entryDx=0;entryDy=0;" edge="1" parent="1" source="72UNQaQtU82CDFyThiPd-11" target="72UNQaQtU82CDFyThiPd-12">
          <mxGeometry relative="1" as="geometry" />
        </mxCell>
        <mxCell id="72UNQaQtU82CDFyThiPd-11" value="git add app" style="rounded=0;whiteSpace=wrap;html=1;" vertex="1" parent="1">
          <mxGeometry x="270" y="490" width="70" height="30" as="geometry" />
        </mxCell>
        <mxCell id="72UNQaQtU82CDFyThiPd-12" value="git commit -m &quot;Complete app&quot;" style="rounded=0;whiteSpace=wrap;html=1;" vertex="1" parent="1">
          <mxGeometry x="340" y="550" width="110" height="30" as="geometry" />
        </mxCell>
        <mxCell id="72UNQaQtU82CDFyThiPd-16" value="git log" style="rounded=0;whiteSpace=wrap;html=1;" vertex="1" parent="1">
          <mxGeometry x="360" y="600" width="70" height="30" as="geometry" />
        </mxCell>
        <mxCell id="72UNQaQtU82CDFyThiPd-17" value="git add ." style="rounded=0;whiteSpace=wrap;html=1;" vertex="1" parent="1">
          <mxGeometry x="470" y="490" width="70" height="30" as="geometry" />
        </mxCell>
        <mxCell id="72UNQaQtU82CDFyThiPd-19" value="" style="endArrow=classic;html=1;" edge="1" parent="1">
          <mxGeometry width="50" height="50" relative="1" as="geometry">
            <mxPoint x="430" y="460" as="sourcePoint" />
            <mxPoint x="470" y="490" as="targetPoint" />
          </mxGeometry>
        </mxCell>
        <mxCell id="72UNQaQtU82CDFyThiPd-21" value="" style="endArrow=classic;html=1;" edge="1" parent="1">
          <mxGeometry width="50" height="50" relative="1" as="geometry">
            <mxPoint x="500" y="520" as="sourcePoint" />
            <mxPoint x="450" y="560" as="targetPoint" />
          </mxGeometry>
        </mxCell>
        <mxCell id="72UNQaQtU82CDFyThiPd-22" value="" style="whiteSpace=wrap;html=1;aspect=fixed;" vertex="1" parent="1">
          <mxGeometry x="90" y="680" width="140" height="140" as="geometry" />
        </mxCell>
        <mxCell id="72UNQaQtU82CDFyThiPd-23" value="" style="whiteSpace=wrap;html=1;aspect=fixed;" vertex="1" parent="1">
          <mxGeometry x="300" y="680" width="140" height="140" as="geometry" />
        </mxCell>
        <mxCell id="72UNQaQtU82CDFyThiPd-24" value="" style="whiteSpace=wrap;html=1;aspect=fixed;" vertex="1" parent="1">
          <mxGeometry x="520" y="680" width="140" height="140" as="geometry" />
        </mxCell>
        <mxCell id="72UNQaQtU82CDFyThiPd-26" value="Working Directory" style="text;html=1;strokeColor=none;fillColor=none;align=center;verticalAlign=middle;whiteSpace=wrap;rounded=0;" vertex="1" parent="1">
          <mxGeometry x="110" y="650" width="90" height="20" as="geometry" />
        </mxCell>
        <mxCell id="72UNQaQtU82CDFyThiPd-27" value="Staging Area" style="text;html=1;strokeColor=none;fillColor=none;align=center;verticalAlign=middle;whiteSpace=wrap;rounded=0;" vertex="1" parent="1">
          <mxGeometry x="320" y="650" width="90" height="20" as="geometry" />
        </mxCell>
        <mxCell id="72UNQaQtU82CDFyThiPd-28" value="Local Repository" style="text;html=1;strokeColor=none;fillColor=none;align=center;verticalAlign=middle;whiteSpace=wrap;rounded=0;" vertex="1" parent="1">
          <mxGeometry x="540" y="650" width="90" height="20" as="geometry" />
        </mxCell>
        <mxCell id="72UNQaQtU82CDFyThiPd-29" value="touch app" style="rounded=0;whiteSpace=wrap;html=1;" vertex="1" parent="1">
          <mxGeometry x="120" y="690" width="70" height="30" as="geometry" />
        </mxCell>
        <mxCell id="72UNQaQtU82CDFyThiPd-30" value="start app" style="rounded=0;whiteSpace=wrap;html=1;" vertex="1" parent="1">
          <mxGeometry x="120" y="735" width="70" height="30" as="geometry" />
        </mxCell>
        <mxCell id="72UNQaQtU82CDFyThiPd-31" value="git init" style="rounded=0;whiteSpace=wrap;html=1;" vertex="1" parent="1">
          <mxGeometry x="120" y="780" width="70" height="30" as="geometry" />
        </mxCell>
        <mxCell id="72UNQaQtU82CDFyThiPd-32" value="git add app" style="rounded=0;whiteSpace=wrap;html=1;" vertex="1" parent="1">
          <mxGeometry x="335" y="700" width="70" height="30" as="geometry" />
        </mxCell>
        <mxCell id="72UNQaQtU82CDFyThiPd-33" value="git add ." style="rounded=0;whiteSpace=wrap;html=1;" vertex="1" parent="1">
          <mxGeometry x="335" y="750" width="70" height="30" as="geometry" />
        </mxCell>
        <mxCell id="72UNQaQtU82CDFyThiPd-34" value="git commit -m &quot;Complete app&quot;" style="rounded=0;whiteSpace=wrap;html=1;" vertex="1" parent="1">
          <mxGeometry x="540" y="705" width="110" height="30" as="geometry" />
        </mxCell>
        <mxCell id="72UNQaQtU82CDFyThiPd-35" value="" style="shape=flexArrow;endArrow=classic;html=1;" edge="1" parent="1">
          <mxGeometry width="50" height="50" relative="1" as="geometry">
            <mxPoint x="560" y="840" as="sourcePoint" />
            <mxPoint x="160" y="840" as="targetPoint" />
            <Array as="points">
              <mxPoint x="360" y="980" />
            </Array>
          </mxGeometry>
        </mxCell>
        <mxCell id="72UNQaQtU82CDFyThiPd-36" value="git checkout app" style="rounded=0;whiteSpace=wrap;html=1;" vertex="1" parent="1">
          <mxGeometry x="310" y="990" width="110" height="60" as="geometry" />
        </mxCell>
        <mxCell id="72UNQaQtU82CDFyThiPd-37" value="&lt;h1&gt;&lt;span&gt;GIT&lt;span style=&quot;font-size: 12px ; font-weight: 400&quot;&gt;&amp;nbsp;FOR LOCAL REPOSITORY&lt;/span&gt;&lt;/span&gt;&lt;br&gt;&lt;/h1&gt;" style="text;html=1;strokeColor=none;fillColor=none;spacing=5;spacingTop=-20;whiteSpace=wrap;overflow=hidden;rounded=0;" vertex="1" parent="1">
          <mxGeometry x="300" y="110" width="210" height="60" as="geometry" />
        </mxCell>
      </root>
    </mxGraphModel>
  </diagram>
  <diagram id="PifsG5DeN3iKuLpn9Tku" name="Page-2">
    <mxGraphModel dx="1108" dy="1582" grid="1" gridSize="10" guides="1" tooltips="1" connect="1" arrows="1" fold="1" page="1" pageScale="1" pageWidth="850" pageHeight="1100" math="0" shadow="0">
      <root>
        <mxCell id="_ykUIG8XH8rFHf8qpSTy-0" />
        <mxCell id="_ykUIG8XH8rFHf8qpSTy-1" parent="_ykUIG8XH8rFHf8qpSTy-0" />
        <mxCell id="_ykUIG8XH8rFHf8qpSTy-3" value="&lt;h1&gt;GITHUB&amp;nbsp;&lt;/h1&gt;&lt;div&gt;FOR REMOTE REPOSITORY&lt;/div&gt;" style="text;html=1;strokeColor=none;fillColor=none;spacing=5;spacingTop=-20;whiteSpace=wrap;overflow=hidden;rounded=0;" vertex="1" parent="_ykUIG8XH8rFHf8qpSTy-1">
          <mxGeometry x="340" y="-1070" width="170" height="80" as="geometry" />
        </mxCell>
        <mxCell id="_ykUIG8XH8rFHf8qpSTy-12" style="edgeStyle=orthogonalEdgeStyle;rounded=0;orthogonalLoop=1;jettySize=auto;html=1;exitX=0.5;exitY=1;exitDx=0;exitDy=0;entryX=0.5;entryY=0;entryDx=0;entryDy=0;" edge="1" parent="_ykUIG8XH8rFHf8qpSTy-1" source="_ykUIG8XH8rFHf8qpSTy-6" target="_ykUIG8XH8rFHf8qpSTy-7">
          <mxGeometry relative="1" as="geometry" />
        </mxCell>
        <mxCell id="_ykUIG8XH8rFHf8qpSTy-6" value="Go to GitHub Account" style="rounded=1;whiteSpace=wrap;html=1;" vertex="1" parent="_ykUIG8XH8rFHf8qpSTy-1">
          <mxGeometry x="360" y="-960" width="120" height="50" as="geometry" />
        </mxCell>
        <mxCell id="_ykUIG8XH8rFHf8qpSTy-13" style="edgeStyle=orthogonalEdgeStyle;rounded=0;orthogonalLoop=1;jettySize=auto;html=1;exitX=0.5;exitY=1;exitDx=0;exitDy=0;entryX=0.5;entryY=0;entryDx=0;entryDy=0;" edge="1" parent="_ykUIG8XH8rFHf8qpSTy-1" source="_ykUIG8XH8rFHf8qpSTy-7" target="_ykUIG8XH8rFHf8qpSTy-8">
          <mxGeometry relative="1" as="geometry" />
        </mxCell>
        <mxCell id="_ykUIG8XH8rFHf8qpSTy-7" value="Create New Repository" style="rounded=1;whiteSpace=wrap;html=1;" vertex="1" parent="_ykUIG8XH8rFHf8qpSTy-1">
          <mxGeometry x="360" y="-870" width="120" height="60" as="geometry" />
        </mxCell>
        <mxCell id="_ykUIG8XH8rFHf8qpSTy-14" style="edgeStyle=orthogonalEdgeStyle;rounded=0;orthogonalLoop=1;jettySize=auto;html=1;exitX=0.5;exitY=1;exitDx=0;exitDy=0;entryX=0.5;entryY=0;entryDx=0;entryDy=0;" edge="1" parent="_ykUIG8XH8rFHf8qpSTy-1" source="_ykUIG8XH8rFHf8qpSTy-8" target="_ykUIG8XH8rFHf8qpSTy-9">
          <mxGeometry relative="1" as="geometry" />
        </mxCell>
        <mxCell id="_ykUIG8XH8rFHf8qpSTy-8" value="Title the link &amp;amp; Set Public/Private&lt;span style=&quot;color: rgba(0 , 0 , 0 , 0) ; font-family: monospace ; font-size: 0px&quot;&gt;%3CmxGraphModel%3E%3Croot%3E%3CmxCell%20id%3D%220%22%2F%3E%3CmxCell%20id%3D%221%22%20parent%3D%220%22%2F%3E%3CmxCell%20id%3D%222%22%20value%3D%22Go%20to%20GitHub%20Account%22%20style%3D%22rounded%3D1%3BwhiteSpace%3Dwrap%3Bhtml%3D1%3B%22%20vertex%3D%221%22%20parent%3D%221%22%3E%3CmxGeometry%20x%3D%22360%22%20y%3D%22-960%22%20width%3D%22120%22%20height%3D%2260%22%20as%3D%22geometry%22%2F%3E%3C%2FmxCell%3E%3C%2Froot%3E%3C%2FmxGraphModel%3E&lt;/span&gt;&lt;br&gt;&amp;nbsp;" style="rounded=1;whiteSpace=wrap;html=1;" vertex="1" parent="_ykUIG8XH8rFHf8qpSTy-1">
          <mxGeometry x="365" y="-780" width="120" height="60" as="geometry" />
        </mxCell>
        <mxCell id="_ykUIG8XH8rFHf8qpSTy-15" style="edgeStyle=orthogonalEdgeStyle;rounded=0;orthogonalLoop=1;jettySize=auto;html=1;exitX=0.5;exitY=1;exitDx=0;exitDy=0;entryX=0.5;entryY=0;entryDx=0;entryDy=0;" edge="1" parent="_ykUIG8XH8rFHf8qpSTy-1" source="_ykUIG8XH8rFHf8qpSTy-9" target="_ykUIG8XH8rFHf8qpSTy-10">
          <mxGeometry relative="1" as="geometry" />
        </mxCell>
        <mxCell id="_ykUIG8XH8rFHf8qpSTy-9" value="Copy the link and go to terminal" style="rounded=1;whiteSpace=wrap;html=1;" vertex="1" parent="_ykUIG8XH8rFHf8qpSTy-1">
          <mxGeometry x="370" y="-690" width="120" height="60" as="geometry" />
        </mxCell>
        <mxCell id="_ykUIG8XH8rFHf8qpSTy-16" style="edgeStyle=orthogonalEdgeStyle;rounded=0;orthogonalLoop=1;jettySize=auto;html=1;exitX=0.5;exitY=1;exitDx=0;exitDy=0;entryX=0.5;entryY=0;entryDx=0;entryDy=0;" edge="1" parent="_ykUIG8XH8rFHf8qpSTy-1" source="_ykUIG8XH8rFHf8qpSTy-10" target="_ykUIG8XH8rFHf8qpSTy-11">
          <mxGeometry relative="1" as="geometry" />
        </mxCell>
        <mxCell id="_ykUIG8XH8rFHf8qpSTy-10" value="Command:&amp;nbsp;&lt;br&gt;git remote add origin" style="rounded=1;whiteSpace=wrap;html=1;" vertex="1" parent="_ykUIG8XH8rFHf8qpSTy-1">
          <mxGeometry x="370" y="-600" width="120" height="60" as="geometry" />
        </mxCell>
        <mxCell id="_ykUIG8XH8rFHf8qpSTy-11" value="Command:&lt;br&gt;git push&amp;nbsp; -u origin master" style="rounded=1;whiteSpace=wrap;html=1;" vertex="1" parent="_ykUIG8XH8rFHf8qpSTy-1">
          <mxGeometry x="360" y="-510" width="140" height="60" as="geometry" />
        </mxCell>
      </root>
    </mxGraphModel>
  </diagram>
</mxfile>
